# Hierarchical Translation and Rotation (.htr) file
# Generated by EVaRT
[Header]
FileType htr
DataType HTRS
FileVersion 1
NumSegments 23
NumFrames 4
DataFrameRate 120
EulerRotationOrder ZYX
CalibrationUnits mm
RotationUnits Degrees
GlobalAxisofGravity Y
BoneLengthAxis Y
ScaleFactor 1
[SegmentNames&Hierarchy]
#CHILD            PARENT
DaveRoot          GLOBAL
Spine1            DaveRoot
Spine2            Spine1
Spine3            Spine2
Spine4            Spine3
Neck              Spine4
Head              Neck
LClavicle         Spine4
LUpperArm         LClavicle
LLowerArm         LUpperArm
LHand             LLowerArm
RClavicle         Spine4
RUpperArm         RClavicle
RLowerArm         RUpperArm
RHand             RLowerArm
RUpperLeg         DaveRoot
RLowerLeg         RUpperLeg
RFoot             RLowerLeg
RToes             RFoot
LUpperLeg         DaveRoot
LLowerLeg         LUpperLeg
LFoot             LLowerLeg
LToes             LFoot
[BasePosition]
#SegmentName      Tx   Ty   Tz   Rx   Ry   Rz   BoneLength
DaveRoot          1078.678277	988.889323	-667.355416	21.100172	-35.850280	-13.563871	100.000000
Spine1            0.000000	100.000000	0.000000	-14.881963	2.292165	3.740750	100.000000
Spine2            0.000000	100.000000	0.000000	6.530342	0.668586	4.295175	100.000000
Spine3            0.000000	100.000000	0.000000	12.838786	0.191691	4.342582	100.000000
Spine4            0.000000	100.000000	0.000000	14.062130	1.171471	5.872723	100.000000
Neck              0.000000	100.000000	0.000000	7.737895	11.498691	-3.920750	80.000000
Head              0.000000	80.000000	0.000000	-47.820279	-9.378091	-2.499782	200.000000
LClavicle         0.000000	100.000000	0.000000	7.006000	0.163524	-123.648937	200.000000
LUpperArm         0.000000	200.000000	0.000000	39.957204	52.516966	-16.160711	300.000000
LLowerArm         0.000000	300.000000	0.000000	-1.806693	2.175812	1.895763	200.000000
LHand             0.000000	200.000000	0.000000	16.195035	-1.768569	8.793625	120.000000
RClavicle         0.000000	100.000000	0.000000	3.329328	-3.962094	109.315139	200.000000
RUpperArm         0.000000	200.000000	0.000000	31.467517	-27.516660	21.198784	300.000000
RLowerArm         0.000000	300.000000	0.000000	20.023297	-3.682026	-7.348670	200.000000
RHand             0.000000	200.000000	0.000000	6.266882	13.427731	10.826414	120.000000
RUpperLeg         -115.911102	-10.000000	31.058285	22.207319	27.607647	-154.283666	530.000000
RLowerLeg         0.000000	530.000000	0.000000	-15.604109	0.479387	-2.520024	460.000000
RFoot             0.000000	460.000000	0.000000	98.099007	-9.797309	28.788465	130.000000
RToes             0.000000	130.000000	0.000000	-15.148141	0.005479	-0.002881	100.000000
LUpperLeg         115.911102	-10.000000	31.058285	41.660003	-3.682702	-163.432677	530.000000
LLowerLeg         0.000000	530.000000	0.000000	-22.778950	-3.275937	3.046484	460.000000
LFoot             0.000000	460.000000	0.000000	77.647326	-23.190969	-3.622247	130.000000
LToes             0.000000	130.000000	0.000000	14.512714	-0.000000	-0.000086	100.000000
#Beginning of Data.
[DaveRoot]
#Fr	Tx	Ty	Tz	Rx	Ry	Rz	SF
273	-109.806467	13.449868	292.205220	54.241396	17.267264	3.555104	1.000000	
274	-111.175622	9.410194	299.073465	55.694553	17.357676	3.468903	1.000000	
275	-111.320149	3.714915	300.122890	55.516552	17.268307	3.139670	1.000000	
276	-112.576382	-0.850830	306.870733	56.812984	17.300112	3.010819	1.000000	
[Spine1]
#Fr	Tx	Ty	Tz	Rx	Ry	Rz	SF
273	0.000000	0.000000	0.000000	3.136638	-0.274002	-6.656289	1.000000	
274	0.000000	0.000000	0.000000	3.016550	-0.567766	-6.653596	1.000000	
275	0.000000	0.000000	0.000000	3.134579	-0.216237	-6.709903	1.000000	
276	0.000000	0.000000	0.000000	3.003780	-0.463747	-6.714439	1.000000	
[Spine2]
#Fr	Tx	Ty	Tz	Rx	Ry	Rz	SF
273	0.000000	0.000000	0.000000	3.136638	-0.274002	-6.656289	1.000000	
274	0.000000	0.000000	0.000000	3.016550	-0.567766	-6.653596	1.000000	
275	0.000000	0.000000	0.000000	3.134579	-0.216237	-6.709903	1.000000	
276	0.000000	0.000000	0.000000	3.003780	-0.463747	-6.714439	1.000000	
[Spine3]
#Fr	Tx	Ty	Tz	Rx	Ry	Rz	SF
273	0.000000	0.000000	0.000000	3.136638	-0.274002	-6.656289	1.000000	
274	0.000000	0.000000	0.000000	3.016550	-0.567766	-6.653596	1.000000	
275	0.000000	0.000000	0.000000	3.134579	-0.216237	-6.709903	1.000000	
276	0.000000	0.000000	0.000000	3.003780	-0.463747	-6.714439	1.000000	
[Spine4]
#Fr	Tx	Ty	Tz	Rx	Ry	Rz	SF
273	0.000000	0.000000	0.000000	3.136638	-0.274002	-6.656289	1.000000	
274	0.000000	0.000000	0.000000	3.016550	-0.567766	-6.653596	1.000000	
275	0.000000	0.000000	0.000000	3.134579	-0.216237	-6.709903	1.000000	
276	0.000000	0.000000	0.000000	3.003780	-0.463747	-6.714439	1.000000	
[Neck]
#Fr	Tx	Ty	Tz	Rx	Ry	Rz	SF
273	0.000000	0.000000	0.000000	-9.011779	5.013179	2.261749	1.000000	
274	0.000000	0.000000	0.000000	-10.133618	5.078842	1.674637	1.000000	
275	0.000000	0.000000	0.000000	-9.538552	4.825453	2.122436	1.000000	
276	0.000000	0.000000	0.000000	-10.461150	4.896230	1.621179	1.000000	
[Head]
#Fr	Tx	Ty	Tz	Rx	Ry	Rz	SF
273	0.000000	0.000000	0.000000	-9.011779	5.013179	2.261749	1.000000	
274	0.000000	0.000000	0.000000	-10.133618	5.078842	1.674637	1.000000	
275	0.000000	0.000000	0.000000	-9.538552	4.825453	2.122436	1.000000	
276	0.000000	0.000000	0.000000	-10.461150	4.896230	1.621179	1.000000	
[LClavicle]
#Fr	Tx	Ty	Tz	Rx	Ry	Rz	SF
273	0.000000	0.000000	0.000000	14.611782	-2.800358	29.941887	1.000000	
274	0.000000	0.000000	0.000000	8.724672	-0.914809	25.267110	1.000000	
275	0.000000	0.000000	0.000000	14.123698	-2.783179	30.249924	1.000000	
276	0.000000	0.000000	0.000000	9.399823	-1.098325	25.932349	1.000000	
[LUpperArm]
#Fr	Tx	Ty	Tz	Rx	Ry	Rz	SF
273	0.000000	0.000000	0.000000	11.560385	0.639950	45.583668	1.000000	
274	0.000000	0.000000	0.000000	-2.351334	18.565079	52.354095	1.000000	
275	0.000000	0.000000	0.000000	10.710767	-1.420057	48.217049	1.000000	
276	0.000000	0.000000	0.000000	-2.911938	17.278982	53.699319	1.000000	
[LLowerArm]
#Fr	Tx	Ty	Tz	Rx	Ry	Rz	SF
273	0.000000	0.000000	0.000000	-21.873843	0.000000	0.000000	1.000000	
274	0.000000	0.000000	0.000000	22.233548	0.000000	0.000000	1.000000	
275	0.000000	0.000000	0.000000	-19.937135	0.000000	0.000000	1.000000	
276	0.000000	0.000000	0.000000	21.043546	0.000000	0.000000	1.000000	
[LHand]
#Fr	Tx	Ty	Tz	Rx	Ry	Rz	SF
273	0.000000	0.000000	0.000000	12.523785	-0.000000	0.000000	1.000000	
274	0.000000	0.000000	0.000000	-16.299682	-0.000000	0.000000	1.000000	
275	0.000000	0.000000	0.000000	10.599006	-0.000000	0.000000	1.000000	
276	0.000000	0.000000	0.000000	-15.394623	-0.000000	0.000000	1.000000	
[RClavicle]
#Fr	Tx	Ty	Tz	Rx	Ry	Rz	SF
273	0.000000	0.000000	0.000000	8.657066	0.559619	-5.186315	1.000000	
274	0.000000	0.000000	0.000000	9.287122	0.411085	-4.028111	1.000000	
275	0.000000	0.000000	0.000000	8.631843	0.596259	-5.437463	1.000000	
276	0.000000	0.000000	0.000000	9.359566	0.487368	-4.470099	1.000000	
[RUpperArm]
#Fr	Tx	Ty	Tz	Rx	Ry	Rz	SF
273	0.000000	0.000000	0.000000	14.431935	10.663971	-40.014957	1.000000	
274	0.000000	0.000000	0.000000	6.295826	18.792007	-40.957038	1.000000	
275	0.000000	0.000000	0.000000	14.332660	11.868706	-42.490321	1.000000	
276	0.000000	0.000000	0.000000	5.883966	19.154177	-43.441640	1.000000	
[RLowerArm]
#Fr	Tx	Ty	Tz	Rx	Ry	Rz	SF
273	0.000000	0.000000	0.000000	-12.154339	0.000000	0.000000	1.000000	
274	0.000000	0.000000	0.000000	20.697967	0.000000	0.000000	1.000000	
275	0.000000	0.000000	0.000000	-12.604765	0.000000	0.000000	1.000000	
276	0.000000	0.000000	0.000000	20.250505	0.000000	0.000000	1.000000	
[RHand]
#Fr	Tx	Ty	Tz	Rx	Ry	Rz	SF
273	0.000000	0.000000	0.000000	26.135363	-27.903187	-26.906882	1.000000	
274	0.000000	0.000000	0.000000	-16.987951	-26.621142	-12.013542	1.000000	
275	0.000000	0.000000	0.000000	25.914196	-28.552973	-26.892817	1.000000	
276	0.000000	0.000000	0.000000	-17.073846	-26.635863	-12.668243	1.000000	
[RUpperLeg]
#Fr	Tx	Ty	Tz	Rx	Ry	Rz	SF
273	0.000000	0.000000	0.000000	31.045889	-14.410394	-3.246629	1.000000	
274	0.000000	0.000000	0.000000	31.658157	-14.172079	-3.115737	1.000000	
275	0.000000	0.000000	0.000000	31.607193	-14.412159	-3.524968	1.000000	
276	0.000000	0.000000	0.000000	32.057310	-14.165863	-3.415711	1.000000	
[RLowerLeg]
#Fr	Tx	Ty	Tz	Rx	Ry	Rz	SF
273	0.000000	0.000000	0.000000	-5.363084	-0.000000	0.000000	1.000000	
274	0.000000	0.000000	0.000000	-5.697312	-0.000000	0.000000	1.000000	
275	0.000000	0.000000	0.000000	-7.148467	-0.000000	0.000000	1.000000	
276	0.000000	0.000000	0.000000	-7.269662	-0.000000	0.000000	1.000000	
[RFoot]
#Fr	Tx	Ty	Tz	Rx	Ry	Rz	SF
273	0.000000	0.000000	0.000000	-2.525245	-35.173357	-17.691338	1.000000	
274	0.000000	0.000000	0.000000	-2.929106	-35.851543	-17.598764	1.000000	
275	0.000000	0.000000	0.000000	-2.209956	-36.235603	-18.126543	1.000000	
276	0.000000	0.000000	0.000000	-2.745477	-36.726420	-17.954628	1.000000	
[RToes]
#Fr	Tx	Ty	Tz	Rx	Ry	Rz	SF
273	0.000000	0.000000	0.000000	36.211687	0.000000	0.000000	1.000000	
274	0.000000	0.000000	0.000000	36.688013	-0.000000	-0.000000	1.000000	
275	0.000000	0.000000	0.000000	36.831751	0.000000	0.000000	1.000000	
276	0.000000	0.000000	0.000000	37.173503	0.000000	0.000000	1.000000	
[LUpperLeg]
#Fr	Tx	Ty	Tz	Rx	Ry	Rz	SF
273	0.000000	0.000000	0.000000	48.056855	1.832617	-10.183095	1.000000	
274	0.000000	0.000000	0.000000	49.973971	1.805329	-9.912344	1.000000	
275	0.000000	0.000000	0.000000	50.852267	1.517174	-9.695302	1.000000	
276	0.000000	0.000000	0.000000	52.632275	1.562833	-9.348877	1.000000	
[LLowerLeg]
#Fr	Tx	Ty	Tz	Rx	Ry	Rz	SF
273	0.000000	0.000000	0.000000	-12.919526	0.000000	0.000000	1.000000	
274	0.000000	0.000000	0.000000	-14.619858	0.000000	0.000000	1.000000	
275	0.000000	0.000000	0.000000	-16.900989	0.000000	0.000000	1.000000	
276	0.000000	0.000000	0.000000	-18.644249	0.000000	0.000000	1.000000	
[LFoot]
#Fr	Tx	Ty	Tz	Rx	Ry	Rz	SF
273	0.000000	0.000000	0.000000	21.398435	24.684772	-1.053468	1.000000	
274	0.000000	0.000000	0.000000	22.668573	24.380435	-0.576923	1.000000	
275	0.000000	0.000000	0.000000	23.873316	23.872472	-0.415035	1.000000	
276	0.000000	0.000000	0.000000	25.120851	23.472204	0.184837	1.000000	
[LToes]
#Fr	Tx	Ty	Tz	Rx	Ry	Rz	SF
273	0.000000	0.000000	0.000000	11.311938	0.000000	0.000000	1.000000	
274	0.000000	0.000000	0.000000	11.260387	0.000000	0.000000	1.000000	
275	0.000000	0.000000	0.000000	10.995437	0.000000	0.000000	1.000000	
276	0.000000	0.000000	0.000000	10.899252	0.000000	0.000000	1.000000	
